<?xml version="1.0" encoding="UTF-8"?>
<svg xmlns="http://www.w3.org/2000/svg" xmlns:xlink="http://www.w3.org/1999/xlink" viewBox="0 0 75 75" width="75px" height="75px">
<g id="surface240515476">
<path style=" stroke:none;fill-rule:nonzero;fill:rgb(43.137255%,32.941177%,58.039218%);fill-opacity:1;" d="M 37.5 7.5 C 20.933594 7.5 7.5 20.933594 7.5 37.5 C 7.5 51.558594 17.179688 63.320312 30.230469 66.574219 C 30.089844 66.171875 30 65.699219 30 65.117188 L 30 59.988281 C 28.78125 59.988281 26.742188 59.988281 26.230469 59.988281 C 24.175781 59.988281 22.351562 59.109375 21.46875 57.46875 C 20.484375 55.644531 20.316406 52.859375 17.878906 51.152344 C 17.15625 50.585938 17.707031 49.9375 18.539062 50.023438 C 20.078125 50.460938 21.351562 51.515625 22.550781 53.078125 C 23.746094 54.648438 24.308594 55.003906 26.542969 55.003906 C 27.625 55.003906 29.246094 54.941406 30.769531 54.699219 C 31.589844 52.617188 33.007812 50.699219 34.738281 49.796875 C 24.75 48.765625 19.984375 43.796875 19.984375 37.050781 C 19.984375 34.144531 21.21875 31.335938 23.324219 28.96875 C 22.632812 26.617188 21.765625 21.824219 23.585938 20 C 28.082031 20 30.800781 22.914062 31.453125 23.703125 C 33.691406 22.933594 36.152344 22.5 38.738281 22.5 C 41.328125 22.5 43.796875 22.933594 46.042969 23.707031 C 46.6875 22.925781 49.40625 20 53.914062 20 C 55.742188 21.828125 54.863281 26.640625 54.167969 28.984375 C 56.257812 31.347656 57.488281 34.148438 57.488281 37.050781 C 57.488281 43.792969 52.726562 48.761719 42.753906 49.792969 C 45.496094 51.226562 47.5 55.25 47.5 58.28125 L 47.5 65.117188 C 47.5 65.378906 47.441406 65.566406 47.414062 65.789062 C 59.101562 61.691406 67.5 50.589844 67.5 37.5 C 67.5 20.933594 54.066406 7.5 37.5 7.5 Z M 37.5 7.5 "/>
</g>
</svg>
