<svg width="46" height="49" xmlns="http://www.w3.org/2000/svg" xmlns:xlink="http://www.w3.org/1999/xlink" overflow="hidden"><defs><linearGradient x1="697" y1="543" x2="697" y2="495" gradientUnits="userSpaceOnUse" spreadMethod="reflect" id="fill0"><stop offset="0" stop-color="#FFF100"/><stop offset="0.5" stop-color="#F7A514"/><stop offset="1" stop-color="#F05A28"/></linearGradient></defs><g transform="translate(-674 -495)"><path d="M719 516.2C718.9 515.4 718.8 514.5 718.5 513.4 718.2 512.4 717.8 511.3 717.3 510.1 716.7 508.9 716 507.7 715 506.6 714.6 506.1 714.2 505.7 713.7 505.2 714.4 502.5 712.9 500.2 712.9 500.2 710.3 500 708.7 501 708.1 501.4 708 501.4 707.9 501.3 707.8 501.3 707.4 501.1 706.9 501 706.4 500.8 705.9 500.7 705.5 500.5 705 500.4 704.5 500.3 704 500.2 703.5 500.1 703.4 500.1 703.3 500.1 703.2 500.1 702.1 496.5 698.8 495 698.8 495 695.2 497.3 694.5 500.5 694.5 500.5 694.5 500.5 694.5 500.6 694.5 500.7 694.3 500.8 694.1 500.8 693.9 500.9 693.6 501 693.4 501.1 693.1 501.2 692.8 501.3 692.6 501.4 692.3 501.5 691.8 501.7 691.2 502 690.7 502.3 690.2 502.6 689.7 502.9 689.2 503.2 689.1 503.2 689.1 503.1 689.1 503.1 684.1 501.2 679.7 503.5 679.7 503.5 679.3 508.8 681.7 512.1 682.2 512.8 682.1 513.1 682 513.5 681.9 513.8 681.5 515 681.3 516.2 681.1 517.5 681.1 517.7 681.1 517.9 681 518.1 676.4 520.4 675 525 675 525 678.8 529.4 683.3 529.7 683.3 529.7 683.3 529.7 683.3 529.7 683.3 529.7 683.9 530.7 684.5 531.7 685.3 532.6 685.6 533 685.9 533.3 686.3 533.7 684.9 537.7 686.5 541 686.5 541 690.8 541.2 693.6 539.1 694.2 538.7 694.6 538.8 695.1 539 695.5 539.1 696.8 539.4 698.2 539.6 699.5 539.7 699.8 539.7 700.2 539.7 700.5 539.7L700.7 539.7 700.8 539.7 701 539.7 701.2 539.7 701.2 539.7C703.2 542.6 706.8 543 706.8 543 709.3 540.3 709.5 537.7 709.5 537.1 709.5 537.1 709.5 537.1 709.5 537.1 709.5 537.1 709.5 537 709.5 537 709.5 537 709.5 536.9 709.5 536.9 710 536.5 710.5 536.1 711 535.7 712 534.8 712.9 533.7 713.6 532.6 713.7 532.5 713.7 532.4 713.8 532.3 716.7 532.5 718.7 530.5 718.7 530.5 718.2 527.5 716.5 526.1 716.2 525.8 716.2 525.8 716.2 525.8 716.2 525.8 716.2 525.8 716.2 525.8 716.2 525.8 716.2 525.8 716.2 525.8 716.1 525.8 716.1 525.6 716.1 525.4 716.1 525.3 716.1 525 716.1 524.7 716.1 524.3L716.1 524 716.1 523.9 716.1 523.8C716.1 523.7 716.1 523.7 716.1 523.7L716.1 523.5 716.1 523.2C716.1 523.1 716.1 523 716.1 522.9 716.1 522.8 716.1 522.7 716.1 522.7L716.1 522.5 716.1 522.3C716.1 522 716 521.7 715.9 521.3 715.6 520 715.1 518.8 714.4 517.7 713.7 516.6 712.9 515.6 712 514.8 711.1 514 710 513.3 708.9 512.8 707.8 512.3 706.7 512 705.5 511.9 704.9 511.8 704.4 511.8 703.8 511.8L703.6 511.8 703.5 511.8C703.5 511.8 703.4 511.8 703.4 511.8L703.3 511.8 703.1 511.8C703 511.8 702.9 511.8 702.9 511.8 702.6 511.8 702.3 511.9 702 511.9 700.9 512.1 699.8 512.5 698.9 513.1 698 513.7 697.1 514.4 696.5 515.2 695.8 516 695.3 516.9 695 517.8 694.6 518.7 694.4 519.7 694.4 520.6 694.4 520.8 694.4 521.1 694.4 521.3 694.4 521.4 694.4 521.4 694.4 521.5L694.4 521.7C694.4 521.8 694.4 521.9 694.4 522 694.4 522.5 694.5 522.9 694.7 523.3 694.9 524.2 695.3 524.9 695.8 525.6 696.3 526.3 696.9 526.8 697.5 527.2 698.1 527.6 698.8 527.9 699.4 528.1 700.1 528.3 700.7 528.4 701.3 528.4 701.4 528.4 701.5 528.4 701.5 528.4 701.5 528.4 701.6 528.4 701.6 528.4 701.6 528.4 701.7 528.4 701.7 528.4 701.8 528.4 701.8 528.4 701.9 528.4 701.9 528.4 701.9 528.4 702 528.4L702.1 528.4C702.1 528.4 702.2 528.4 702.2 528.4 702.3 528.4 702.3 528.4 702.4 528.4 702.5 528.4 702.5 528.4 702.6 528.4 702.7 528.4 702.9 528.3 703 528.3 703.3 528.2 703.5 528.1 703.8 528 704 527.9 704.3 527.7 704.5 527.6 704.6 527.6 704.6 527.5 704.7 527.5 704.9 527.3 705 527 704.8 526.8 704.7 526.6 704.4 526.6 704.2 526.7 704.1 526.7 704.1 526.8 704 526.8 703.8 526.9 703.6 527 703.4 527 703.2 527.1 703 527.1 702.8 527.2 702.7 527.2 702.6 527.2 702.5 527.2 702.4 527.2 702.4 527.2 702.3 527.2 702.2 527.2 702.2 527.2 702.1 527.2 702 527.2 702 527.2 701.9 527.2 701.8 527.2 701.8 527.2 701.7 527.2 701.7 527.2 701.7 527.2 701.7 527.2L701.7 527.2 701.7 527.2C701.7 527.2 701.6 527.2 701.6 527.2 701.5 527.2 701.5 527.2 701.4 527.2 700.9 527.1 700.4 527 700 526.8 699.5 526.6 699.1 526.3 698.7 525.9 698.3 525.5 697.9 525.1 697.7 524.6 697.4 524.1 697.2 523.5 697.1 523 697.1 522.7 697 522.4 697 522.1 697 522 697 521.9 697 521.9 697 521.9 697 521.9 697 521.9L697 521.9 697 521.8C697 521.8 697 521.7 697 521.7 697 521.5 697 521.4 697.1 521.2 697.3 519.9 698 518.7 698.9 517.8 699.1 517.6 699.4 517.3 699.7 517.2 700 517 700.3 516.8 700.6 516.7 700.9 516.6 701.2 516.4 701.6 516.3 701.9 516.2 702.3 516.2 702.6 516.1 702.8 516.1 703 516.1 703.1 516.1 703.1 516.1 703.2 516.1 703.2 516.1L703.3 516.1 703.4 516.1C703.4 516.1 703.4 516.1 703.4 516.1L703.4 516.1 703.5 516.1C703.9 516.1 704.3 516.2 704.6 516.3 705.3 516.5 706.1 516.7 706.7 517.1 708 517.8 709.2 519 709.9 520.4 710.3 521.1 710.5 521.9 710.6 522.6 710.6 522.8 710.7 523 710.7 523.2L710.7 523.3 710.7 523.4C710.7 523.5 710.7 523.5 710.7 523.5 710.7 523.6 710.7 523.6 710.7 523.6L710.7 523.7 710.7 523.8C710.7 523.9 710.7 524.1 710.7 524.2 710.7 524.4 710.7 524.6 710.6 524.8 710.6 525 710.5 525.2 710.5 525.4 710.5 525.6 710.4 525.8 710.4 526 710.3 526.4 710.2 526.8 710 527.2 709.7 528 709.3 528.8 708.8 529.5 707.8 530.9 706.4 532 704.8 532.8 704 533.2 703.2 533.4 702.3 533.6 701.9 533.7 701.4 533.7 701 533.7L700.9 533.7 700.8 533.7 700.7 533.7 700.5 533.7 700.4 533.7C700.5 533.7 700.4 533.7 700.4 533.7L700.4 533.7C700.2 533.7 699.9 533.7 699.7 533.7 698.8 533.6 697.9 533.5 697 533.2 696.1 532.9 695.3 532.6 694.4 532.2 692.8 531.3 691.3 530.1 690.2 528.7 689.6 528 689.1 527.2 688.7 526.4 688.3 525.6 688 524.7 687.7 523.9 687.5 523 687.3 522.1 687.3 521.2L687.3 521 687.3 521 687.3 521 687.3 520.9 687.3 520.8 687.3 520.8 687.3 520.7 687.3 520.6 687.3 520.4 687.3 520.4C687.3 520.4 687.3 520.4 687.3 520.4L687.3 520.3C687.3 520.2 687.3 520.1 687.3 520 687.3 519.6 687.4 519.1 687.4 518.6 687.5 518.1 687.5 517.7 687.6 517.2 687.7 516.7 687.8 516.3 687.9 515.9 688.2 515 688.5 514.2 688.8 513.4 689.5 511.8 690.5 510.4 691.7 509.2 692 508.9 692.3 508.6 692.6 508.4 692.9 508.1 693.2 507.9 693.6 507.7 693.9 507.5 694.3 507.3 694.6 507.1 694.8 507 695 506.9 695.1 506.8 695.2 506.8 695.3 506.7 695.4 506.7 695.5 506.7 695.6 506.6 695.7 506.6 696.1 506.4 696.5 506.3 696.8 506.2 696.9 506.2 697 506.1 697.1 506.1 697.2 506.1 697.3 506 697.4 506 697.6 505.9 697.8 505.9 698 505.9 698.1 505.9 698.2 505.9 698.3 505.8 698.4 505.7 698.5 505.8 698.6 505.7 698.7 505.7 698.8 505.7 698.9 505.6L699 505.6 699.1 505.6C699.2 505.6 699.3 505.6 699.4 505.6 699.5 505.6 699.6 505.6 699.7 505.6 699.8 505.6 699.9 505.6 700 505.6 700.1 505.6 700.1 505.6 700.2 505.6L700.3 505.6 700.4 505.6 700.5 505.6C700.6 505.6 700.7 505.6 700.8 505.6L701 505.6C701 505.6 701.1 505.6 701 505.6L701 505.6 701.1 505.6C701.2 505.6 701.3 505.6 701.4 505.6 701.8 505.6 702.2 505.6 702.6 505.6 703.4 505.6 704.1 505.7 704.9 505.9 706.4 506.2 707.7 506.6 709 507.3 710.2 507.9 711.4 508.7 712.3 509.5 712.4 509.6 712.4 509.6 712.5 509.7 712.6 509.8 712.6 509.8 712.7 509.9 712.8 510 712.9 510.1 713 510.2 713.1 510.3 713.2 510.4 713.3 510.5 713.4 510.6 713.5 510.7 713.6 510.8 714 511.2 714.4 511.7 714.7 512.1 715.4 513 715.9 513.9 716.4 514.7 716.4 514.8 716.5 514.8 716.5 514.9 716.5 515 716.6 515 716.6 515.1 716.7 515.2 716.7 515.3 716.7 515.4 716.7 515.5 716.8 515.6 716.8 515.7 716.8 515.8 716.9 515.9 716.9 516 717.1 516.4 717.2 516.8 717.3 517.1 717.5 517.7 717.7 518.2 717.8 518.6 717.8 518.8 718 518.9 718.2 518.9 718.4 518.9 718.5 518.7 718.5 518.5 719 517.4 719 516.9 719 516.2Z" fill="url(#fill0)" fill-rule="evenodd"/></g></svg>